<?xml version="1.0" encoding="UTF-8" standalone="no"?>
<svg width="156px" height="136px" viewBox="0 0 156 136" version="1.1" xmlns="http://www.w3.org/2000/svg" xmlns:xlink="http://www.w3.org/1999/xlink">
    <title>Erlang Logo</title>
    <g>
        <path d="M24.4280522,98.3417619 C12.3415144,85.6144286 5.2697859,68.0315714 5.28770757,47.0527619 C5.27100783,28.4996905 11.1370966,12.5524762 21.2217023,0.417714286 L21.2054099,0.423785714 L0.00896083551,0.423785714 L0.00896083551,98.3437857 L24.4129817,98.3437857 L24.4280522,98.3417619 L24.4280522,98.3417619 Z" fill="#A90533"></path>
        <path d="M136.060512,98.3498571 C141.267164,92.8082619 145.932501,86.281881 150.159979,78.8180714 L126.698883,67.1609286 C118.459394,80.4723333 106.409922,92.724881 89.7476554,92.8066429 C65.4975979,92.724881 55.9697859,72.1184524 56.022329,45.5952143 L146.640815,45.5952143 C146.761786,42.6007857 146.761786,41.2084048 146.640815,39.7670476 C147.23223,23.9874048 143.023896,10.7237619 135.368491,0.394642857 L135.328982,0.424190476 L155.73199,0.424190476 L155.73199,98.3441905 L136.016115,98.3441905 L136.060512,98.3498571 L136.060512,98.3498571 Z" fill="#A90533"></path>
        <path d="M57.4890548,22.8637857 C58.4922611,10.8553095 68.0196658,2.7795 79.1905692,2.75521429 C90.4376397,2.7795 98.5638956,10.8553095 98.8392376,22.8637857 L57.4890548,22.8637857 L57.4890548,22.8637857 Z" fill="#A90533"></path>
        <path d="M12.9129713,114.955214 L12.9129713,110.875619 L0.302631854,110.875619 L0.302631854,135.06419 L12.9129713,135.06419 L12.9129713,130.983786 L4.99485117,130.983786 L4.99485117,124.572762 L12.6193003,124.572762 L12.6193003,120.492762 L4.99485117,120.492762 L4.99485117,114.955214 L12.9129713,114.955214 L12.9129713,114.955214 Z" fill="#000000"></path>
        <path d="M34.3212219,124.863786 C37.464846,124.399929 39.1910287,121.30431 39.306705,118.160929 C39.1910287,113.018429 35.8364178,110.890595 31.0953211,110.875214 L24.6435196,110.875214 L24.6435196,135.063786 L29.3357389,135.063786 L29.3357389,125.446643 L35.2010131,135.063786 L41.0662872,135.063786 L34.3212219,124.863786 L34.3212219,124.863786 Z M29.3353316,114.66419 L29.921859,114.66419 C32.4818068,114.759714 34.4030914,115.340143 34.3208146,118.452762 C34.4030914,121.304714 32.5469765,122.078619 29.921859,121.949905 L29.3353316,121.949905 L29.3353316,114.66419 L29.3353316,114.66419 Z" fill="#000000"></path>
        <path d="M55.7290653,110.875619 L51.0372533,110.875619 L51.0372533,135.06419 L62.4741305,135.06419 L62.4741305,130.983786 L55.7290653,130.983786 L55.7290653,110.875619 L55.7290653,110.875619 Z" fill="#000000"></path>
        <path d="M86.5217546,130.1095 L88.5746005,135.063786 L93.5600836,135.063786 L84.4689086,110.292357 L80.6564804,110.292357 L70.9787781,135.063786 L75.9638538,135.063786 L78.017107,130.1095 L86.5217546,130.1095 L86.5217546,130.1095 Z M85.3486997,126.321333 L79.4834256,126.321333 L82.122799,117.287048 L85.3486997,126.321333 L85.3486997,126.321333 Z" fill="#000000"></path>
        <path d="M102.358402,135.06419 L107.343478,135.06419 L107.343478,118.74419 L120.247488,135.646643 L123.766245,135.646643 L123.766245,110.875619 L118.78117,110.875619 L118.78117,127.195619 L105.877159,110.292357 L102.358402,110.292357 L102.358402,135.06419 L102.358402,135.06419 Z" fill="#000000"></path>
        <path d="M144.295112,122.240929 L144.295112,126.0295 L149.573859,126.0295 C149.463885,129.074119 146.95648,131.653667 144.001849,131.566643 C139.335697,131.653667 137.023394,127.172548 136.96352,123.115214 C137.023394,119.112119 139.303112,114.437119 144.001849,114.372357 C146.467708,114.436714 148.552324,116.113238 149.573859,118.160929 L153.679551,116.120929 C151.873943,112.341262 148.226475,110.245405 144.001849,110.292357 C136.730131,110.24581 132.073347,116.210381 131.978037,123.115214 C132.073347,129.848024 136.600198,135.844976 143.708585,135.938071 C151.385577,135.844976 154.93529,129.751286 154.852606,122.823786 L154.852606,122.240929 L144.295112,122.240929 L144.295112,122.240929 L144.295112,122.240929 Z" fill="#000000"></path>
    </g>
</svg>
